:FULLY-SPECIFIED
:FORCE-ALL-JOINTS-BE-3DOF
:DEGREES
3160
root 0.956625 16.9241 -33.363 1086.05 5.17884 -3.83956
lfemur -18.72 -2.42482 -8.23142
ltibia 35.2683 -0 0
lfoot -16.436 7.52242 0.00139522
ltoes -40.4392 0 0
rfemur -19.5595 -0.293027 18.5144
rtibia 39.2924 -0 0
rfoot -12.275 -21.1839 0.000476384
rtoes -16.4102 0 0
lowerback 5.75866 1.53279 -0.489476
upperback -4.0423 2.14598 1.88213
thorax -7.56424 1.13733 1.98807
lowerneck -5.38721 -5.12694 -7.89224
upperneck 9.28379 -6.77097 5.96615
head 4.12632 -3.32943 2.73536
lclavicle -2.50003e-14 -3.87536e-15 -2.19792e-30
lhumerus -33.2874 -18.9738 95.0485
lradius 50.0094 -0 0
lwrist -9.34338 0 0
lhand -33.8339 29.9062 -8.66788e-05
lfingers 7.12502 -0 0
lthumb -7.41568 59.6413 7.12193e-06
rclavicle -8.06743e-15 -1.58234e-14 4.78269e-32
rhumerus -35.5538 14.4738 -81.4076
rradius 52.2376 -0 0
rwrist 1.0827 0 0
rhand -28.8418 -33.9698 0.000259487
rfingers 7.12502 -0 0
rthumb -2.22927 -63.8469 0.00331417
3161
root 0.964197 16.9266 -33.3574 1086.06 5.10726 -3.87113
lfemur -18.6901 -2.42147 -8.23516
ltibia 35.2113 -0 0
lfoot -16.4206 7.63966 0.00131501
ltoes -40.489 0 0
rfemur -19.4889 -0.252445 18.5172
rtibia 39.1777 -0 0
rfoot -12.2553 -21.1454 0.000645125
rtoes -16.425 0 0
lowerback 5.70869 1.53203 -0.496752
upperback -4.04946 2.14444 1.88654
thorax -7.54327 1.13711 1.99809
lowerneck -5.40616 -5.11279 -7.91704
upperneck 9.33702 -6.75127 5.97568
head 4.14543 -3.31987 2.74266
lclavicle -2.1936e-14 -2.85844e-15 -2.19792e-30
lhumerus -33.2395 -18.8047 94.9772
lradius 49.6347 -0 0
lwrist -9.57784 0 0
lhand -33.8359 29.9545 -8.75517e-05
lfingers 7.12502 -0 0
lthumb -7.41102 59.6509 2.70296e-05
rclavicle -7.86649e-15 -1.61097e-14 2.22446e-32
rhumerus -35.5426 14.2658 -81.4036
rradius 51.5391 -0 0
rwrist 1.19573 0 0
rhand -28.8259 -33.9521 6.74728e-05
rfingers 7.12502 -0 0
rthumb -2.14865 -63.7978 0.00293823
3162
root 0.970484 16.9294 -33.3526 1086.05 5.01551 -3.90957
lfemur -18.6498 -2.41696 -8.24021
ltibia 35.1522 -0 0
lfoot -16.4058 7.75318 0.00120739
ltoes -40.5262 0 0
rfemur -19.4162 -0.210687 18.5202
rtibia 39.0577 -0 0
rfoot -12.2331 -21.1018 0.000820115
rtoes -16.4386 0 0
lowerback 5.67843 1.52518 -0.505555
upperback -4.04297 2.13512 1.90092
thorax -7.51929 1.13332 2.02007
lowerneck -5.48157 -5.11066 -7.91935
upperneck 9.43194 -6.74278 5.94227
head 4.18525 -3.31622 2.73072
lclavicle -1.88885e-14 -1.8471e-15 -2.14398e-30
lhumerus -33.1839 -18.6071 94.8942
lradius 49.3541 -0 0
lwrist -9.78693 0 0
lhand -33.838 30.0028 -8.66788e-05
lfingers 7.12502 -0 0
lthumb -7.40365 59.666 5.69517e-05
rclavicle -7.74111e-15 -1.62884e-14 5.77304e-33
rhumerus -35.5291 14.0146 -81.3989
rradius 50.8133 -0 0
rwrist 1.28019 0 0
rhand -28.8204 -393.946 0
rfingers 7.12502 -0 0
rthumb -2.07282 -63.7516 0.00252163
3163
root 0.976838 16.9318 -33.3486 1086.05 4.95361 -3.97401
lfemur -18.5999 -2.41137 -8.24644
ltibia 35.0916 -0 0
lfoot -16.3915 7.86176 0.00107689
ltoes -40.5495 0 0
rfemur -19.3425 -0.168344 18.5232
rtibia 38.9342 -0 0
rfoot -12.2085 -21.0537 0.000993419
rtoes -16.4509 0 0
lowerback 5.63591 1.54021 -0.480739
upperback -4.04176 2.15753 1.90516
thorax -7.49342 1.1431 2.00884
lowerneck -5.4761 -5.10736 -7.88618
upperneck 9.48197 -6.74014 5.90858
head 4.19711 -3.31557 2.715
lclavicle -1.58914e-14 -8.52503e-16 -2.03847e-30
lhumerus -33.1217 -18.3844 94.8011
lradius 49.1781 -0 0
lwrist -9.96675 0 0
lhand -33.8401 30.0506 -8.4091e-05
lfingers 7.12502 -0 0
lthumb -7.39388 59.6861 9.35965e-05
rclavicle -7.69786e-15 -1.635e-14 0
rhumerus -35.5138 13.7273 -81.3936
rradius 50.067 -0 0
rwrist 1.33307 0 0
rhand -28.8082 -33.9369 0.000159917
rfingers 7.12502 -0 0
rthumb -2.00265 -63.7089 0.00208172
3164
root 0.982488 16.934 -33.3447 1086.03 4.86449 -4.03701
lfemur -18.5415 -2.40482 -8.25374
ltibia 35.0303 -0 0
lfoot -16.3781 7.96416 0.000929129
ltoes -40.5576 0 0
rfemur -19.2688 -0.126005 18.5264
rtibia 38.8089 -0 0
rfoot -12.182 -21.0017 0.00115754
rtoes -16.4616 0 0
lowerback 5.61533 1.56728 -0.466929
upperback -4.04674 2.19575 1.91473
thorax -7.48831 1.1615 2.0069
lowerneck -5.45113 -5.10275 -7.87113
upperneck 9.53739 -6.73657 5.88337
head 4.2082 -3.31503 2.70529
lclavicle -1.29785e-14 1.1418e-16 -1.88606e-30
lhumerus -33.0539 -18.1397 94.6993
lradius 49.1171 0 0
lwrist -10.1134 0 0
lhand -33.8421 30.0976 -7.98807e-05
lfingers 7.12502 -0 0
lthumb -7.38203 59.7104 0.000133444
rclavicle -7.73748e-15 -1.62928e-14 6.04562e-33
rhumerus -35.497 13.4112 -81.3878
rradius 49.3071 -0 0
rwrist 1.35136 0 0
rhand -28.7731 -33.9108 0.000608914
rfingers 7.12502 -0 0
rthumb -1.93901 -63.6702 0.00163753
